<?xml version="1.0" encoding="UTF-8" standalone="no"?>
<svg
   inkscape:version="1.2.1 (9c6d41e410, 2022-07-14)"
   sodipodi:docname="talk-icon-rounded-with-gap.svg"
   id="svg19"
   xml:space="preserve"
   viewBox="-128 -128 1280 1280"
   version="1.1"
   stroke-miterlimit="1.4142"
   stroke-linejoin="round"
   fill-rule="evenodd"
   clip-rule="evenodd"
   xmlns:inkscape="http://www.inkscape.org/namespaces/inkscape"
   xmlns:sodipodi="http://sodipodi.sourceforge.net/DTD/sodipodi-0.dtd"
   xmlns="http://www.w3.org/2000/svg"
   xmlns:svg="http://www.w3.org/2000/svg"
   xmlns:rdf="http://www.w3.org/1999/02/22-rdf-syntax-ns#"
   xmlns:cc="http://creativecommons.org/ns#"
   xmlns:dc="http://purl.org/dc/elements/1.1/"><metadata
   id="metadata23"><rdf:RDF><cc:Work
       rdf:about=""><dc:format>image/svg+xml</dc:format><dc:type
         rdf:resource="http://purl.org/dc/dcmitype/StillImage" /><dc:title /></cc:Work></rdf:RDF></metadata><sodipodi:namedview
   inkscape:current-layer="svg19"
   inkscape:window-maximized="1"
   inkscape:window-y="-11"
   inkscape:window-x="-11"
   inkscape:cy="666.27727"
   inkscape:cx="-16.814568"
   inkscape:zoom="0.4757779"
   showgrid="false"
   id="namedview21"
   inkscape:window-height="2054"
   inkscape:window-width="3840"
   inkscape:pageshadow="2"
   inkscape:pageopacity="0"
   guidetolerance="10"
   gridtolerance="10"
   objecttolerance="10"
   borderopacity="1"
   inkscape:document-rotation="0"
   bordercolor="#666666"
   pagecolor="#ffffff"
   inkscape:showpageshadow="2"
   inkscape:pagecheckerboard="0"
   inkscape:deskcolor="#d1d1d1" /><defs
   id="defs15"><linearGradient
   gradientUnits="userSpaceOnUse"
   gradientTransform="matrix(8.96 0 0 8.96 -7.8457e-5 .00019795)"
   y2="-7.6294e-6"
   y1="150"
   x2="150"
   x1="18.23"
   id="a"><stop
     id="stop10"
     offset="0"
     stop-color="#0082c9" /><stop
     id="stop12"
     offset="1"
     stop-color="#1cafff" /></linearGradient>
<filter
   style="color-interpolation-filters:sRGB;"
   inkscape:label="Drop Shadow"
   id="filter264"
   x="-0.05625"
   y="-0.05625"
   width="1.1125"
   height="1.1271484"><feFlood
     flood-opacity="0.498039"
     flood-color="rgb(0,0,0)"
     result="flood"
     id="feFlood254" /><feComposite
     in="flood"
     in2="SourceGraphic"
     operator="in"
     result="composite1"
     id="feComposite256" /><feGaussianBlur
     in="composite1"
     stdDeviation="24"
     result="blur"
     id="feGaussianBlur258" /><feOffset
     dx="0"
     dy="15"
     result="offset"
     id="feOffset260" /><feComposite
     in="SourceGraphic"
     in2="offset"
     operator="over"
     result="composite2"
     id="feComposite262" /></filter></defs>
<rect
   id="rect17"
   fill-rule="evenodd"
   fill="url(#a)"
   height="1024"
   width="1024"
   rx="160"
   style="filter:url(#filter264)" /><path
   style="fill:#ffffff"
   inkscape:connector-curvature="0"
   d="M 511.95919,186 A 325.96385,325.95103 0 0 0 186,511.96034 325.96385,325.95103 0 0 0 511.95919,837.91133 325.96385,325.95103 0 0 0 681.04889,790.22529 c 40.06218,15.91895 129.79781,63.14682 151.15526,42.74701 22.3177,-21.31206 -26.20129,-121.61808 -37.83331,-158.89148 A 325.96385,325.95103 0 0 0 837.91466,511.95755 325.96385,325.95103 0 0 0 511.96013,186.01118 Z m 0.0373,123.92323 A 202.1178,202.11161 0 0 1 714.11425,512.03485 202.1178,202.11161 0 0 1 511.99645,714.13247 202.1178,202.11161 0 0 1 309.87866,512.03485 202.1178,202.11161 0 0 1 511.99645,309.92323 Z"
   stroke-width="0.14"
   fill="#000"
   id="path25" /></svg>
