<?xml version="1.0" encoding="UTF-8" standalone="no"?>
<svg
   inkscape:version="1.2.1 (9c6d41e410, 2022-07-14)"
   sodipodi:docname="talk-icon-rounded-spaced.svg"
   id="svg19"
   xml:space="preserve"
   viewBox="0 0 1024 1024"
   version="1.1"
   stroke-miterlimit="1.4142"
   stroke-linejoin="round"
   fill-rule="evenodd"
   clip-rule="evenodd"
   xmlns:inkscape="http://www.inkscape.org/namespaces/inkscape"
   xmlns:sodipodi="http://sodipodi.sourceforge.net/DTD/sodipodi-0.dtd"
   xmlns="http://www.w3.org/2000/svg"
   xmlns:svg="http://www.w3.org/2000/svg"
   xmlns:rdf="http://www.w3.org/1999/02/22-rdf-syntax-ns#"
   xmlns:cc="http://creativecommons.org/ns#"
   xmlns:dc="http://purl.org/dc/elements/1.1/"><metadata
   id="metadata23"><rdf:RDF><cc:Work
       rdf:about=""><dc:format>image/svg+xml</dc:format><dc:type
         rdf:resource="http://purl.org/dc/dcmitype/StillImage" /><dc:title /></cc:Work></rdf:RDF></metadata><sodipodi:namedview
   inkscape:current-layer="svg19"
   inkscape:window-maximized="1"
   inkscape:window-y="1106"
   inkscape:window-x="1912"
   inkscape:cy="521.66038"
   inkscape:cx="436.20319"
   inkscape:zoom="0.67285156"
   showgrid="false"
   id="namedview21"
   inkscape:window-height="1369"
   inkscape:window-width="2560"
   inkscape:pageshadow="2"
   inkscape:pageopacity="0"
   guidetolerance="10"
   gridtolerance="10"
   objecttolerance="10"
   borderopacity="1"
   inkscape:document-rotation="0"
   bordercolor="#666666"
   pagecolor="#ffffff"
   inkscape:showpageshadow="2"
   inkscape:pagecheckerboard="0"
   inkscape:deskcolor="#d1d1d1" /><defs
   id="defs15"><linearGradient
     gradientUnits="userSpaceOnUse"
     gradientTransform="matrix(7.84,0,0,7.84,63.999926,64.000167)"
     y2="-7.6294e-6"
     y1="150"
     x2="150"
     x1="18.23"
     id="a"><stop
       id="stop10"
       offset="0"
       stop-color="#0082c9" /><stop
       id="stop12"
       offset="1"
       stop-color="#1cafff" /></linearGradient></defs>
<rect
   id="rect17"
   fill-rule="evenodd"
   fill="url(#a)"
   height="896"
   width="896"
   rx="140"
   style="fill:url(#a);stroke-width:0.875001"
   x="64"
   y="64" /><path
   style="fill:#ffffff"
   inkscape:connector-curvature="0"
   d="M 511.9643,226.75 A 285.21838,285.20716 0 0 0 226.75,511.9653 285.21838,285.20716 0 0 0 511.9643,797.17243 285.21838,285.20716 0 0 0 659.91779,755.44714 c 35.05441,13.92909 113.57309,55.25347 132.26085,37.40363 C 811.70663,774.20272 769.25251,686.43496 759.0745,653.82073 A 285.21838,285.20716 0 0 0 797.17534,511.96286 285.21838,285.20716 0 0 0 511.96512,226.75978 Z m 0.0326,108.43282 A 176.85308,176.84766 0 0 1 688.84998,512.0305 176.85308,176.84766 0 0 1 511.9969,688.86592 176.85308,176.84766 0 0 1 335.14383,512.0305 176.85308,176.84766 0 0 1 511.9969,335.18282 Z"
   stroke-width="0.1225"
   fill="#000"
   id="path25" /></svg>
