<svg viewBox="0 0 324 324" xmlns="http://www.w3.org/2000/svg" fill="#ffffff">
  <path d="M 159.99373,90 A 49.994444,49.992488 0 0 0 110,139.99392 a 49.994444,49.992488 0 0 0 49.99373,49.99248 49.994444,49.992488 0 0 0 25.93399,-7.31381 c 6.14453,2.44155 19.90767,9.68509 23.18334,6.55629 3.42298,-3.26872 -4.01861,-18.65308 -5.80266,-24.36986 a 49.994444,49.992488 0 0 0 6.6785,-24.86553 49.994444,49.992488 0 0 0 -49.99303,-49.991775 z m 0.006,19.00663 a 30.999656,30.998714 0 0 1 30.99939,30.99871 30.999656,30.998714 0 0 1 -30.99968,30.99657 30.999656,30.998714 0 0 1 -30.99966,-30.99657 30.999656,30.998714 0 0 1 30.99966,-30.99871 z"/>
  <path d="m 220.05064,210.00005 c -0.40996,0 -0.61556,0.2056 -0.61556,0.61556 v 0.21618 c 0,0.40994 0.2056,0.61556 0.61556,0.61556 h 8.82668 v 23.25927 c 0,0.40998 0.20556,0.61556 0.61556,0.61556 h 0.32611 c 0.40993,0 0.61556,-0.20558 0.61556,-0.61556 v -23.25927 h 8.82662 c 0.40996,0 0.61193,-0.20563 0.61193,-0.61556 v -0.21619 c 0,-0.40995 -0.20197,-0.61556 -0.61193,-0.61556 z m 35.35063,0 c -0.40998,0 -0.6119,0.2056 -0.6119,0.61556 v 21.04988 c 0,0.84404 0.1306,1.51978 0.39568,2.02619 0.26528,0.50645 0.5925,0.89258 0.97832,1.15783 0.38586,0.26535 0.77198,0.43333 1.15784,0.50565 0.40994,0.0723 0.746,0.10994 1.01128,0.10994 0.26532,0 0.4333,-0.059 0.50564,-0.17948 0.0964,-0.12064 0.1466,-0.27975 0.1466,-0.47269 v -0.21618 c 0,-0.21705 -0.0626,-0.36004 -0.1832,-0.43234 -0.0964,-0.0723 -0.22694,-0.12222 -0.39574,-0.1464 -0.21702,-0.0242 -0.44768,-0.058 -0.68884,-0.10618 -0.24114,-0.0725 -0.46812,-0.20646 -0.68516,-0.39936 -0.21702,-0.19294 -0.39758,-0.47004 -0.54226,-0.83175 -0.1206,-0.38586 -0.1832,-0.89358 -0.1832,-1.52057 v -20.54423 c 0,-0.40996 -0.2056,-0.61556 -0.61556,-0.61556 z m 6.37176,0 c -0.40998,7e-5 -0.61192,0.2056 -0.61192,0.61556 l -0.004,24.09101 c 0,0.40998 0.2056,0.61556 0.61556,0.61556 h 0.28944 c 0.41,0 0.61558,-0.20558 0.61558,-0.61556 v -8.93658 h 3.22066 l 6.29482,9.15276 c 0.169,0.26527 0.40832,0.39938 0.72184,0.39938 h 0.54224 c 0.26532,0 0.43336,-0.0753 0.50566,-0.21982 0.0726,-0.14462 0.0384,-0.32528 -0.1062,-0.54229 l -6.65756,-9.47522 v -0.0733 l 5.89542,-7.01663 c 0.193,-0.19294 0.25554,-0.36461 0.183,-0.5093 -0.0722,-0.16898 -0.24034,-0.25283 -0.50558,-0.25283 h -0.54234 c -0.28934,0 -0.54504,0.12162 -0.76208,0.36277 l -5.56936,6.76378 h -3.22066 v -13.74378 c 0,-0.40996 -0.20558,-0.61563 -0.61558,-0.61556 z M 50.809751,210.24188 C 50.242854,210.24188 50,210.56893 50,211.1359 v 23.48645 c 0,0.56693 0.242854,0.89036 0.809751,0.89036 h 0.648532 c 0.566918,0 0.890364,-0.32343 0.890364,-0.89036 V 215.1187 l 12.820454,19.89572 c 0.05582,0.0868 0.115054,0.14896 0.175868,0.2125 0.01802,0.0212 0.03457,0.0432 0.05495,0.0622 0.05463,0.0497 0.11339,0.0792 0.172224,0.10994 0.03282,0.0178 0.05885,0.0386 0.09526,0.0513 0.02542,0.008 0.05418,0.008 0.0806,0.0138 0.09045,0.0232 0.180702,0.044 0.289459,0.044 h 0.644872 c 0.566916,0 0.809749,-0.31979 0.809749,-0.88672 v -23.48639 c 0,-0.56695 -0.242833,-0.894 -0.809749,-0.894 h -0.644871 c -0.566936,0 -0.894021,0.32705 -0.894021,0.894 v 19.50367 L 52.322989,210.73933 c -0.04382,-0.0679 -0.09732,-0.10876 -0.14657,-0.16124 -0.148076,-0.20942 -0.383555,-0.33708 -0.718152,-0.33708 z m 153.959049,0.32608 c -0.56693,0 -0.32242,0.32343 -0.32242,0.89038 v 8.01691 c 0,0.80985 0.0806,1.37765 0.0806,1.37765 h -0.0806 c 0,0 -1.54076,-3.56143 -5.83315,-3.56143 -4.69733,0 -8.01778,3.72248 -7.85569,9.22968 0,5.50723 2.99678,9.31402 7.77507,9.31402 4.61633,0 6.15561,-3.7227 6.15561,-3.7227 h 0.0806 c 0,0 -0.16124,0.4843 -0.16124,1.13221 v 1.37767 c 0,0.56693 0.32343,0.80974 0.89035,0.80974 h 0.56792 c 0.56693,0 0.80976,-0.32341 0.80976,-0.89038 v -23.08337 c 0,-0.56695 -0.89137,-0.89038 -1.45828,-0.89038 z m -62.92612,0.0806 c -0.56692,0 -0.24549,0.32341 -0.24549,0.89036 v 19.84439 c 0,3.88742 2.59097,4.37121 4.04876,4.37121 0.6479,0 0.89402,-0.32345 0.89402,-0.89036 v -0.56792 c 0,-0.56693 -0.32421,-0.80975 -0.72914,-0.80975 -0.80991,-0.081 -1.86499,-0.32282 -1.86499,-2.59051 v -19.35706 c 0,-0.56695 -0.89137,-0.89036 -1.45829,-0.89036 z m -29.07411,2.1068 c -0.56692,0 -0.89036,0.32347 -0.89036,0.89038 v 4.20998 2.02617 9.15281 c 0,4.21138 2.34874,6.55861 6.23618,6.55861 0.72889,0 0.97098,-0.24285 0.97098,-0.80977 v -0.4873 c 0,-0.64791 -0.24209,-0.80951 -0.97098,-0.89036 -1.3768,-0.081 -3.88754,-0.56693 -3.88754,-4.69733 v -8.90724 h 3.64205 c 0.56692,0 0.89037,-0.24283 0.89037,-0.80973 v -0.24551 c 0,-0.56692 -0.32345,-0.89035 -0.89037,-0.89035 h -3.64205 v -4.20998 c 0,-0.56691 -0.24283,-0.89038 -0.80974,-0.89038 z m 131.63326,4.0451 c -1.42283,0 -2.61879,0.20557 -3.58342,0.61554 -0.9646,0.38585 -1.6492,0.72188 -2.05921,1.01128 -0.33756,0.24116 -0.37518,0.53078 -0.10994,0.86837 l 0.1464,0.2162 c 0.24114,0.31351 0.52711,0.3636 0.86468,0.1464 0.41,-0.26529 1.01423,-0.55488 1.81006,-0.86837 0.79582,-0.33765 1.74862,-0.50566 2.85795,-0.50566 0.72347,0 1.38671,0.0965 1.98955,0.28948 0.6029,0.16898 1.12312,0.46727 1.55723,0.90133 0.45817,0.40996 0.80672,0.9678 1.04788,1.66715 0.24118,0.67525 0.36277,1.51901 0.36277,2.53185 v 0.61186 h -1.19449 c -0.53054,0 -1.18122,0.0118 -1.95292,0.0366 -0.74757,0.0242 -1.54493,0.099 -2.38895,0.21984 -0.81993,0.12044 -1.63864,0.31367 -2.45856,0.57892 -0.81993,0.24116 -1.55463,0.58969 -2.20575,1.0479 -0.65112,0.45822 -1.18387,1.04993 -1.59387,1.77339 -0.40994,0.69935 -0.61556,1.55564 -0.61556,2.5685 0,0.91643 0.18066,1.69752 0.54228,2.34866 0.36175,0.65111 0.83189,1.19639 1.41066,1.63048 0.60288,0.43406 1.26612,0.74507 1.98959,0.938 0.74757,0.21705 1.48597,0.3261 2.20943,0.3261 1.18166,0 2.16839,-0.23064 2.96416,-0.68886 0.81993,-0.45819 1.47062,-0.96226 1.95294,-1.51691 0.50643,-0.57877 0.86752,-1.09899 1.08455,-1.55718 l 0.32609,-0.68519 h 0.0733 c -0.0242,0.12064 -0.0491,0.26355 -0.0733,0.43236 -0.0242,0.14462 -0.0454,0.32524 -0.0695,0.54227 v 0.65221 1.77338 c 0,0.40998 0.20194,0.61556 0.61189,0.61556 h 0.28946 c 0.40996,0 0.61554,-0.20558 0.61554,-0.61556 v -11.06897 c 0,-2.26687 -0.54162,-3.96686 -1.62679,-5.10032 -1.08521,-1.15755 -2.67621,-1.73674 -4.77425,-1.73674 z m -163.895082,0.49098 c -4.85929,0 -8.745816,3.48281 -8.82666,9.314 0,5.50716 4.049734,9.31029 9.313974,9.31029 2.83457,0 4.941882,-1.21306 5.913752,-1.94193 0.405056,-0.32392 0.484794,-0.72726 0.241828,-1.13221 l -0.241828,-0.40669 c -0.242966,-0.48593 -0.649914,-0.56578 -1.13585,-0.24181 -0.809884,0.64791 -2.42962,1.61948 -4.69729,1.61948 -3.644456,0 -6.803876,-2.59118 -6.884718,-7.12653 h 12.879078 c 0.485954,0 0.89036,-0.40811 0.89036,-0.89406 0,-5.10228 -2.674314,-8.50054 -7.452646,-8.50054 z m 50.318182,0 c -5.26423,0 -9.31374,3.8874 -9.39458,9.3946 0,5.5072 4.04973,9.31394 9.31397,9.31394 3.23954,0 5.42595,-1.53916 6.3168,-2.26803 0.40505,-0.40495 0.48845,-0.73052 0.24549,-1.21644 l -0.24549,-0.32242 c -0.32393,-0.48595 -0.64626,-0.56947 -1.13219,-0.2455 -0.80989,0.72889 -2.51273,1.86498 -5.02339,1.86498 -3.88742,0 -6.96167,-2.91515 -6.96167,-7.12653 0,-4.29238 3.07425,-7.21082 6.96167,-7.21082 2.10571,0 3.6456,1.05625 4.45547,1.62315 0.48593,0.32383 0.89248,0.32104 1.21645,-0.16482 l 0.24183,-0.40302 c 0.40509,-0.48593 0.32435,-0.89252 -0.0806,-1.21644 -0.89087,-0.72891 -2.83617,-2.02257 -5.91375,-2.02257 z m 27.374,0 c -5.18325,0 -9.39458,3.96547 -9.39458,9.22969 0,5.34524 4.21133,9.3946 9.39458,9.3946 5.18326,0 9.39458,-4.04936 9.39458,-9.3946 0,-5.26422 -4.21132,-9.22969 -9.39458,-9.22969 z m -52.2418,0.26749 c -0.0506,-0.004 -0.10064,-0.004 -0.15022,0.004 -0.1983,0.0317 -0.38939,0.16382 -0.57159,0.38108 l -3.27564,3.90584 -2.454906,2.92388 -3.711668,-4.42614 -2.015214,-2.40358 c -0.1823,-0.2172 -0.390434,-0.33698 -0.604568,-0.35545 -0.214112,-0.0178 -0.435046,0.0632 -0.652198,0.24548 l -0.498308,0.41771 c -0.434268,0.36441 -0.411868,0.76754 -0.04762,1.20182 l 3.279308,3.90586 2.718716,3.23899 -3.979142,4.74494 c -0.004,0.004 -0.0054,0.006 -0.0074,0.01 l -2.011556,2.39257 c -0.364412,0.4343 -0.324324,0.89238 0.10992,1.25681 l 0.498306,0.41402 c 0.43429,0.36442 0.830068,0.27298 1.19448,-0.16124 l 3.275644,-3.90952 2.454902,-2.92024 3.711664,4.42618 c 0.002,0.004 0.005,0.006 0.007,0.008 l 2.01156,2.39627 c 0.36441,0.43431 0.81879,0.47424 1.2531,0.10994 l 0.49831,-0.4177 c 0.43428,-0.36442 0.41208,-0.76754 0.0476,-1.20183 l -3.27931,-3.90584 -2.71872,-3.24267 3.97914,-4.74125 c 0.004,-0.004 0.005,-0.006 0.007,-0.01 l 2.01156,-2.39263 c 0.36441,-0.43427 0.32066,-0.89236 -0.11358,-1.25676 l -0.49464,-0.41404 c -0.16286,-0.13668 -0.32083,-0.20929 -0.47266,-0.22353 z m 66.41795,0.1355 c -0.56692,0 -0.80975,0.32343 -0.80975,0.89038 v 10.44983 c 0,4.61633 3.3988,6.88103 7.6102,6.88103 4.21139,0 7.61386,-2.2647 7.61386,-6.88103 v -10.44983 c 0.0808,-0.56695 -0.24283,-0.89038 -0.80975,-0.89038 h -0.64854 c -0.56691,0 -0.89036,0.32343 -0.89036,0.89038 v 9.80127 c 0,2.7536 -1.78273,5.26523 -5.26521,5.26523 -3.40151,0 -5.26156,-2.51163 -5.26156,-5.26523 v -9.80127 c 0,-0.56695 -0.32708,-0.89038 -0.89402,-0.89038 z m -91.94894,1.61949 c 2.59162,0 4.861304,1.86219 5.02339,5.58767 H 74.270564 c 0.566918,-3.64448 3.159002,-5.58767 6.155576,-5.58767 z m 77.77279,0.16124 c 3.80646,0 6.88472,2.9965 6.88472,7.0459 0,4.21141 -3.07826,7.29145 -6.88472,7.29145 -3.80644,0 -6.88083,-3.16102 -6.96167,-7.29145 0,-3.96841 3.15523,-7.0459 6.96167,-7.0459 z m 40.57551,0 c 3.80644,0 5.67194,3.4857 5.67194,7.13021 0,5.10222 -2.75596,7.20714 -5.75254,7.20714 -3.32053,0 -5.58745,-2.83379 -5.66827,-7.20714 0,-4.53536 2.59033,-7.13021 5.74887,-7.13021 z m 49.35372,6.22149 h 1.15783 v 0.97833 c 0,0.8923 -0.1466,1.795 -0.43601,2.71139 -0.26529,0.91637 -0.66395,1.75126 -1.19449,2.49887 -0.50641,0.72343 -1.1446,1.31151 -1.91628,1.76974 -0.77171,0.4582 -1.65306,0.68884 -2.64177,0.68884 -0.77172,0 -1.4438,-0.10914 -2.02257,-0.32612 -0.57876,-0.24117 -1.06142,-0.54326 -1.44729,-0.90502 -0.38585,-0.38583 -0.67544,-0.80589 -0.86838,-1.26409 -0.19294,-0.4823 -0.28944,-0.965 -0.28944,-1.4473 0,-0.79581 0.16818,-1.45903 0.50562,-1.98957 0.33765,-0.53053 0.77021,-0.96311 1.30073,-1.30075 0.55466,-0.3617 1.17145,-0.64246 1.84668,-0.83536 0.69936,-0.19294 1.40899,-0.32345 2.13247,-0.39574 0.72347,-0.0967 1.42425,-0.1466 2.0995,-0.1466 0.67522,-0.0242 1.7734,0.46989 1.7734,-0.0366 z" />
</svg>
